<?xml version="1.0" encoding="utf-8"?>
<!-- Generator: Adobe Illustrator 26.5.0, SVG Export Plug-In . SVG Version: 6.00 Build 0)  -->
<svg version="1.1" id="Layer_1" xmlns="http://www.w3.org/2000/svg" xmlns:xlink="http://www.w3.org/1999/xlink" x="0px" y="0px"
	 viewBox="0 0 1989.7 387" style="enable-background:new 0 0 1989.7 387;" xml:space="preserve">
<style type="text/css">
	.st0{fill-rule:evenodd;clip-rule:evenodd;fill:#013E7D;}
	.st1{fill-rule:evenodd;clip-rule:evenodd;fill:#FF6801;}
	.st2{fill:#FF6801;}
	.st3{fill:#013E7D;}
</style>
<path class="st0" d="M200.2,83.3l0,36.8l-57.7,1.6l0.1,208.5l239.9,1.4l-24.3-40.4c-20.4-34-55.9,20.6-123.3-6.8
	c-90.8-36.8-69.6-170.2,34.4-170.1c29,0,46.6,7.7,59.7,24.2l-18.1,19.3c-18.4-9.2-41.7-15.4-66.8-6.9
	c-63.2,26.7-20.7,154.3,90.7,90.1c57-36.6,87.7-182-102.4-181.9l-32.2,0L200.2,83.3L200.2,83.3z"/>
<polygon class="st1" points="122,106.3 140.4,106.3 186.4,106.3 186.4,46.4 158.8,46.4 140.4,46.4 122,46.4 122,106.3 "/>
<polygon class="st1" points="99.1,191.5 107.8,191.5 129.8,191.5 129.8,156.4 116.6,156.4 107.8,156.3 99.1,156.3 99.1,191.5 "/>
<polygon class="st1" points="41.9,149.3 56.5,149.3 93.2,149.3 93.2,96 71.2,96 56.5,96 41.9,96 41.9,149.3 "/>
<path class="st2" d="M561.4,323.6c-11.1,5.9-25,8.8-41.6,8.8c-21.4,0-38.6-6.9-51.5-20.7c-12.9-13.8-19.4-32-19.4-54.4
	c0-24.1,7.3-43.6,21.8-58.5c14.5-14.9,32.9-22.3,55.2-22.3c14.3,0,26.1,2.1,35.5,6.2v18.7c-10.8-6-22.7-9.1-35.7-9.1
	c-17.3,0-31.3,5.8-42.1,17.4c-10.7,11.6-16.1,27-16.1,46.4c0,18.4,5,33,15.1,44c10.1,10.9,23.2,16.4,39.6,16.4
	c15.1,0,28.2-3.4,39.3-10.1V323.6L561.4,323.6z"/>
<path class="st2" d="M707.5,329.8h-21.1l-25.2-42.3c-2.3-4-4.5-7.3-6.7-10.1c-2.2-2.8-4.4-5-6.7-6.8c-2.3-1.8-4.7-3.1-7.4-3.8
	c-2.6-0.8-5.6-1.2-8.9-1.2H617v64.2h-17.7V179h45c6.6,0,12.7,0.8,18.3,2.5c5.6,1.7,10.4,4.1,14.5,7.5c4.1,3.4,7.3,7.5,9.6,12.6
	c2.3,5,3.5,10.9,3.5,17.6c0,5.3-0.8,10.1-2.4,14.5c-1.6,4.4-3.8,8.3-6.8,11.7c-2.9,3.4-6.4,6.4-10.5,8.8c-4.1,2.4-8.8,4.3-13.9,5.6
	v0.4c2.5,1.1,4.7,2.4,6.5,3.8c1.9,1.4,3.6,3.2,5.3,5.1c1.7,2,3.4,4.2,5,6.7c1.7,2.5,3.5,5.4,5.5,8.7L707.5,329.8L707.5,329.8z
	 M617,194.9v54.7h24c4.4,0,8.5-0.7,12.3-2c3.7-1.3,7-3.2,9.7-5.7c2.7-2.5,4.9-5.6,6.4-9.2c1.5-3.6,2.3-7.7,2.3-12.2
	c0-8.1-2.6-14.4-7.8-18.9c-5.2-4.5-12.8-6.8-22.7-6.8H617L617,194.9z"/>
<polygon class="st3" points="767.6,179 767.6,194.1 753,194.1 753,314.7 767.6,314.7 767.6,329.8 720.7,329.8 720.7,314.7 
	735.3,314.7 735.3,194.1 720.7,194.1 720.7,179 767.6,179 "/>
<polygon class="st3" points="888.9,194.9 845.4,194.9 845.4,329.8 827.7,329.8 827.7,194.9 784.2,194.9 784.2,179 888.9,179 
	888.9,194.9 "/>
<polygon class="st2" points="952,179 952,194.1 937.4,194.1 937.4,314.7 952,314.7 952,329.8 905.1,329.8 905.1,314.7 919.7,314.7 
	919.7,194.1 905.1,194.1 905.1,179 952,179 "/>
<path class="st2" d="M1086.7,323.6c-11.1,5.9-25,8.8-41.6,8.8c-21.4,0-38.6-6.9-51.5-20.7c-12.9-13.8-19.4-32-19.4-54.4
	c0-24.1,7.3-43.6,21.8-58.5c14.5-14.9,32.9-22.3,55.2-22.3c14.3,0,26.1,2.1,35.5,6.2v18.7c-10.8-6-22.7-9.1-35.7-9.1
	c-17.3,0-31.3,5.8-42.1,17.4c-10.7,11.6-16.1,27-16.1,46.4c0,18.4,5,33,15.1,44c10.1,10.9,23.2,16.4,39.6,16.4
	c15.1,0,28.2-3.4,39.3-10.1V323.6L1086.7,323.6z"/>
<path class="st2" d="M1241.5,329.8h-19.6c-16.5-43.9-28.9-77.9-45.3-122.5c-0.8-2.1-1.6-5.4-2.4-10h-0.5c-0.7,4.2-1.5,7.6-2.5,10.1
	l-44.4,122.4h-19.6l57.9-150.8h18.3L1241.5,329.8L1241.5,329.8z"/>
<polygon class="st2" points="1348.9,329.8 1270.7,329.8 1270.7,179 1288.4,179 1288.4,313.9 1348.9,313.9 1348.9,329.8 "/>
<path class="st3" d="M1487.4,329.8h-21.1l-25.2-42.3c-2.3-4-4.5-7.3-6.7-10.1c-2.2-2.8-4.4-5-6.7-6.8c-2.3-1.8-4.7-3.1-7.4-3.8
	c-2.6-0.8-5.6-1.2-8.9-1.2h-14.5v64.2h-17.7V179h45c6.6,0,12.7,0.8,18.3,2.5c5.6,1.7,10.4,4.1,14.5,7.5c4.1,3.4,7.3,7.5,9.6,12.6
	c2.3,5,3.5,10.9,3.5,17.6c0,5.3-0.8,10.1-2.4,14.5c-1.6,4.4-3.8,8.3-6.8,11.7c-2.9,3.4-6.4,6.4-10.5,8.8c-4.1,2.4-8.8,4.3-13.9,5.6
	v0.4c2.5,1.1,4.7,2.4,6.5,3.8c1.9,1.4,3.6,3.2,5.3,5.1c1.7,2,3.4,4.2,5,6.7c1.7,2.5,3.5,5.4,5.5,8.7L1487.4,329.8L1487.4,329.8z
	 M1396.9,194.9v54.7h24c4.4,0,8.5-0.7,12.3-2c3.7-1.3,7-3.2,9.7-5.7c2.7-2.5,4.9-5.6,6.4-9.2c1.5-3.6,2.3-7.7,2.3-12.2
	c0-8.1-2.6-14.4-7.8-18.9c-5.2-4.5-12.8-6.8-22.7-6.8H1396.9L1396.9,194.9z"/>
<polygon class="st3" points="1547.5,179 1547.5,194.1 1532.8,194.1 1532.8,314.7 1547.5,314.7 1547.5,329.8 1500.5,329.8 
	1500.5,314.7 1515.2,314.7 1515.2,194.1 1500.5,194.1 1500.5,179 1547.5,179 "/>
<path class="st3" d="M1691.7,179l-55.8,150.8h-19.5L1561.7,179h19.6l41.8,119.6c1.3,3.8,2.3,8.3,3.1,13.4h0.4
	c0.6-4.2,1.7-8.7,3.5-13.6l42.6-119.4H1691.7L1691.7,179z"/>
<path class="st3" d="M1800.5,329.8h-80v-28.9l-0.1-36.6h8.8h8.8l0.1,49.5h62.3V329.8L1800.5,329.8z M1720.4,246.2l0.1-67.2h76.5
	v15.9h-58.8l-0.1,49.4C1731.5,245.5,1725.4,246,1720.4,246.2L1720.4,246.2z"/>
<path class="st3" d="M1944.8,329.8h-21.1l-25.2-42.3c-2.3-4-4.5-7.3-6.7-10.1c-2.2-2.8-4.4-5-6.7-6.8c-2.3-1.8-4.7-3.1-7.4-3.8
	c-2.6-0.8-5.6-1.2-8.9-1.2h-14.5v64.2h-17.7V179h45c6.6,0,12.7,0.8,18.3,2.5c5.6,1.7,10.4,4.1,14.5,7.5c4.1,3.4,7.3,7.5,9.6,12.6
	c2.3,5,3.5,10.9,3.5,17.6c0,5.3-0.8,10.1-2.4,14.5c-1.6,4.4-3.8,8.3-6.8,11.7c-2.9,3.4-6.4,6.4-10.5,8.8c-4.1,2.4-8.8,4.3-13.9,5.6
	v0.4c2.5,1.1,4.7,2.4,6.5,3.8c1.9,1.4,3.6,3.2,5.3,5.1c1.7,2,3.4,4.2,5,6.7c1.7,2.5,3.5,5.4,5.5,8.7L1944.8,329.8L1944.8,329.8z
	 M1854.3,194.9v54.7h24c4.4,0,8.5-0.7,12.3-2c3.7-1.3,7-3.2,9.7-5.7c2.7-2.5,4.9-5.6,6.4-9.2c1.5-3.6,2.3-7.7,2.3-12.2
	c0-8.1-2.6-14.4-7.8-18.9c-5.2-4.5-12.8-6.8-22.7-6.8H1854.3L1854.3,194.9z"/>
<path class="st1" d="M1679.5,250.8v6.5c0,0,32.4,4.6,73.9,2.3c41.6-2.3,62.4-27.7,62.4-27.7l-23.1-16.2c0,0-25.4,25.4-41.6,30
	C1735,250.4,1700.3,253.2,1679.5,250.8L1679.5,250.8z"/>
</svg>
